<svg xmlns="http://www.w3.org/2000/svg" viewBox="0 172 1280 548" width="1280" height="548" preserveAspectRatio="xMidYMid slice">
  <defs>
    <radialGradient id="paperVignette" cx="50%" cy="50%" r="80%">
      <stop offset="0%" stop-color="#E6E8DD"/>
      <stop offset="80%" stop-color="#DCDFD2"/>
      <stop offset="100%" stop-color="#C8CDBE"/>
    </radialGradient>
    <filter id="paperGrain">
      <feTurbulence type="fractalNoise" baseFrequency="0.65" numOctaves="2" seed="9"/>
      <feColorMatrix values="0 0 0 0 0   0 0 0 0 0   0 0 0 0 0   0 0 0 0.04 0"/>
      <feComposite in2="SourceGraphic" operator="in"/>
    </filter>
  </defs>

  <rect width="1280" height="720" fill="url(#paperVignette)"/>

  <ellipse cx="280" cy="712" rx="100" ry="8" fill="#0a0a0a" opacity="0.18"/>

  <g transform="translate(280,228)">
    <ellipse cx="0" cy="34" rx="27" ry="36" fill="#0a0a0a"/>
    <path d="M -25 22 C -22 6, 22 6, 25 22 L 22 32 L -22 32 Z" fill="#0a0a0a"/>
    <path d="M -13 64 L -14 88 L 14 88 L 13 64 Z" fill="#0a0a0a"/>
    <path d="M -88 96 C -94 108, -98 132, -96 158 L -94 220 C -92 250, -88 278, -84 295 L -82 305 L -56 470 L -50 478 L -14 478 L -8 470 L 0 320 L 8 470 L 14 478 L 50 478 L 56 470 L 82 305 L 84 295 C 88 278, 92 250, 94 220 L 96 158 C 98 132, 94 108, 88 96 L 78 92 C 60 89, 40 89, 26 92 L 20 96 L 0 285 L -20 96 L -26 92 C -40 89, -60 89, -78 92 Z" fill="#0a0a0a"/>
    <path d="M -20 96 L 20 96 L 0 285 Z" fill="#F5F7EE"/>
    <path d="M -20 96 L -10 112 L 0 108 L 10 112 L 20 96 Z" fill="#F5F7EE"/>
    <path d="M -18 98 L -10 112" stroke="#C8CDBE" stroke-width="1.2" fill="none"/>
    <path d="M 18 98 L 10 112" stroke="#C8CDBE" stroke-width="1.2" fill="none"/>
    <path d="M -8 108 L 8 108 L 10 122 L 6 130 L -6 130 L -10 122 Z" fill="#9CE069"/>
    <path d="M -7 130 L 7 130 L 9 200 L 6 250 L 0 262 L -6 250 L -9 200 Z" fill="#9CE069"/>
    <line x1="0" y1="132" x2="0" y2="258" stroke="#7DBD52" stroke-width="0.8" opacity="0.5"/>
    <ellipse cx="-32" cy="482" rx="22" ry="6" fill="#0a0a0a"/>
    <ellipse cx="32" cy="482" rx="22" ry="6" fill="#0a0a0a"/>
  </g>

  <g transform="translate(485,240)">
    <rect x="0" y="0" width="148" height="22" fill="#9CE069"/>
    <text x="9" y="15" font-family="Inter, system-ui, sans-serif" font-size="11" font-weight="700" fill="#0a0a0a" letter-spacing="2">// DOSSIER #001</text>
    <text x="160" y="15" font-family="Inter, system-ui, sans-serif" font-size="11" font-weight="500" fill="#0a0a0a" letter-spacing="2" opacity="0.65">CLASSIFIED — FOR OPERATORS ONLY</text>
  </g>

  <g transform="translate(485,290)">
    <text font-family="Inter, system-ui, sans-serif" font-size="84" font-weight="900" fill="#0a0a0a" letter-spacing="-2">
      <tspan x="0" y="68">O CO CHODZI</tspan>
      <tspan x="0" y="148">Z TYMI AGENTAMI?</tspan>
    </text>
  </g>

  <g transform="translate(485,490)">
    <line x1="0" y1="0" x2="50" y2="0" stroke="#0a0a0a" stroke-width="2.5"/>
    <text x="62" y="5" font-family="Inter, system-ui, sans-serif" font-size="16" font-weight="500" fill="#0a0a0a" opacity="0.8">
      Bond. Briefing. Cztery zasady prawdziwego agenta AI.
    </text>
  </g>

  <g transform="translate(1200,672)">
    <circle cx="-128" cy="-4" r="3" fill="#9CE069"/>
    <text font-family="Inter, system-ui, sans-serif" font-size="12" font-weight="700" fill="#0a0a0a" letter-spacing="3" text-anchor="end">WORKSHIFT.PL</text>
  </g>

  <g transform="translate(80,672)">
    <text font-family="Inter, system-ui, sans-serif" font-size="10" font-weight="500" fill="#0a0a0a" opacity="0.55" letter-spacing="3">CODENAME: WS-007</text>
  </g>

  <rect width="1280" height="720" filter="url(#paperGrain)" opacity="0.5"/>
</svg>
